<svg width="800" height="600" xmlns="http://www.w3.org/2000/svg">

 <g>
  <title>Layer 1</title>
  <g stroke="null" id="svg_38">
   <path stroke="null" id="svg_17" fill="#f2f2f2" d="m777.23525,529.37228l-751.46767,0a19.37033,19.40019 0 0 1 -19.34843,-19.37825l0,-464.08414a14.19102,14.21289 0 0 1 14.17465,-14.19707l761.56989,0a14.4364,14.45865 0 0 1 14.41998,14.4425l0,463.83871a19.37032,19.40017 0 0 1 -19.34843,19.37825z"/>
   <path stroke="null" id="svg_18" fill="#fff" d="m752.93853,504.90599l-700.34822,0c-10.26639,0 -18.61855,-7.83343 -18.61855,-17.46176l0,-404.13041c0,-7.14068 6.18915,-12.95037 13.79675,-12.95037l709.76321,0c7.73375,0 14.02549,5.90546 14.02549,13.16369l0,403.91709c0.00001,9.62833 -8.35241,17.46176 -18.61869,17.46176z"/>
   <path stroke="null" id="svg_19" fill="#3f3d56" d="m796.31429,48.32472l-790.16666,0l0,-9.86575a19.43492,19.46487 0 0 1 19.41878,-19.43673l751.32899,0a19.43483,19.46478 0 0 1 19.41885,19.43673l0.00004,9.86575z"/>
   <circle stroke="null" transform="matrix(1.1726318960714464,0,0,1.1744392383193292,-9494.43624276029,-7208.50331089553) " id="svg_20" fill="#fff" r="4.28342" cy="6166.52255" cx="8132.02734"/>
   <circle stroke="null" transform="matrix(1.1726318960714464,0,0,1.1744392383193292,-9494.43624276029,-7208.50331089553) " id="svg_21" fill="#fff" r="4.28342" cy="6166.52255" cx="8148.28615"/>
   <circle stroke="null" transform="matrix(1.1726318960714464,0,0,1.1744392383193292,-9494.43624276029,-7208.50331089553) " id="svg_22" fill="#fff" r="4.28342" cy="6166.52255" cx="8164.54495"/>
   <path stroke="null" id="svg_23" fill="#ccc" d="m386.14944,158.72703l-136.97295,0a7.69967,7.71153 0 0 1 0,-15.42306l136.97295,0a7.69967,7.71153 0 1 1 0,15.42306z"/>
   <path stroke="null" id="svg_24" fill="#ccc" d="m556.3525,158.72703l-136.97294,0a7.69967,7.71153 0 0 1 0,-15.42306l136.97294,0a7.69967,7.71153 0 1 1 0,15.42306z"/>
   <path stroke="null" id="svg_25" fill="#ccc" d="m556.3525,187.94965l-238.28429,0a7.69965,7.71152 0 1 1 0,-15.42305l238.28429,0a7.69965,7.71152 0 1 1 0,15.42305z"/>
   <path stroke="null" id="svg_26" fill="#ccc" d="m386.14944,129.0985l-136.97295,0a7.69967,7.71153 0 0 1 0,-15.42305l136.97295,0a7.69967,7.71153 0 1 1 0,15.42305z"/>
   <path stroke="null" id="svg_27" fill="#ccc" d="m461.52508,129.50438l-38.90355,0a7.69967,7.71153 0 0 1 0,-15.42306l38.90355,0a7.69967,7.71153 0 1 1 0,15.42306z"/>
   <path stroke="null" id="svg_28" fill="#ccc" d="m288.08005,187.94965l-38.90356,0a7.69967,7.71153 0 0 1 0,-15.42305l38.90356,0a7.69967,7.71153 0 1 1 0,15.42305z"/>
   <path stroke="null" id="svg_29" fill="#ccc" d="m386.14944,432.37138l-136.97295,0a7.69967,7.71153 0 0 1 0,-15.42306l136.97295,0a7.69967,7.71153 0 1 1 0,15.42306z"/>
   <path stroke="null" id="svg_30" fill="#ccc" d="m556.3525,432.37138l-136.97294,0a7.69967,7.71153 0 0 1 0,-15.42306l136.97294,0a7.69967,7.71153 0 1 1 0,15.42306z"/>
   <path stroke="null" id="svg_31" fill="#ccc" d="m556.3525,461.594l-238.28429,0a7.69965,7.71152 0 1 1 0,-15.42305l238.28429,0a7.69967,7.71153 0 1 1 0,15.42305z"/>
   <path stroke="null" id="svg_32" fill="#ccc" d="m386.14944,402.74285l-136.97295,0a7.69965,7.71152 0 0 1 0,-15.42305l136.97295,0a7.69965,7.71152 0 1 1 0,15.42305z"/>
   <path stroke="null" id="svg_33" fill="#ccc" d="m461.52508,403.14872l-38.90355,0a7.69967,7.71153 0 0 1 0,-15.42306l38.90355,0a7.69967,7.71153 0 0 1 0,15.42306z"/>
   <path stroke="null" id="svg_34" fill="#ccc" d="m288.08005,461.594l-38.90356,0a7.69965,7.71152 0 0 1 0,-15.42305l38.90356,0a7.69967,7.71153 0 1 1 0,15.42305z"/>
   <path stroke="null" id="svg_35" fill="#994ec9" d="m350.37634,349.58191a11.01913,11.03611 0 0 1 -7.76695,-3.18285l-51.48872,-50.92285a10.73146,10.748 0 0 1 0,-15.29514l51.28065,-50.7174a11.37653,11.39407 0 0 1 15.99885,0.0505l0,0a11.36163,11.37914 0 0 1 0.00022,16.07419l-38.10593,38.16533a6.3479,6.35769 0 0 0 0,8.98037l37.8992,37.95806a11.04385,11.06087 0 0 1 -7.81733,18.88982l0,-0.00004z"/>
   <path stroke="null" id="svg_36" fill="#994ec9" d="m432.42023,349.58191a11.04385,11.06087 0 0 1 -7.81733,-18.88982l37.8992,-37.95802a6.3479,6.35769 0 0 0 0,-8.98037l-38.10593,-38.16538a11.34845,11.36594 0 0 1 0.00022,-16.07419l0,0a11.37651,11.39405 0 0 1 15.99884,-0.0505l51.28065,50.7174a10.73142,10.74796 0 0 1 0,15.29514l-51.48871,50.92285a11.02146,11.03845 0 0 1 -7.76695,3.18288z"/>
  </g>
 </g>
</svg>